<?xml version="1.0" encoding="UTF-8" standalone="no"?>
<svg width="47px" height="51px" viewBox="0 0 47 51" version="1.1" xmlns="http://www.w3.org/2000/svg" xmlns:xlink="http://www.w3.org/1999/xlink">
    <!-- Generator: Sketch 46.2 (44496) - http://www.bohemiancoding.com/sketch -->
    <title>drumstick</title>
    <desc>Created with Sketch.</desc>
    <defs>
        <path d="M35.128031,6.66865992 C35.0151919,6.19953783 34.9645218,5.66541035 34.9645218,5.07410156 C34.9645218,4.041829 35.9862718,3.03837735 36.5963121,2.29387939 C37.4011411,1.31165991 37.6919348,0.246836472 39.0711299,0.246836472 C41.4957207,0.246836472 42.6098901,2.19584561 42.6098901,4.59 C45.0344809,4.59 46.2421801,5.55858735 46.7837865,7.96382415 C47.0462424,9.1293727 45.6909849,10.1586202 44.8985073,10.9428369 C44.1037894,11.7292705 43.7615122,12.7115259 42.6098901,12.962168 C42.0196757,13.0906238 41.4508062,13.052823 40.9293432,12.8865666 C39.5161155,13.4285573 36.744015,15.7823373 32.6130418,19.9479067 C30.1618141,22.4196629 27.7459531,25.2014 25.3654589,28.2931179 L25.3654473,28.293109 C24.2948147,29.6836161 22.2996668,29.9429256 20.9091597,28.8722929 C20.8446258,28.8226045 20.7820261,28.7704533 20.7214995,28.7159549 L20.7214995,28.7159549 C19.4483699,27.5696239 19.3455794,25.6082636 20.4919104,24.3351341 C20.5553864,24.2646368 20.622063,24.1970884 20.6917298,24.132702 C23.108946,21.8986902 25.839434,19.0932074 28.8831909,15.7162502 C33.0121175,11.1353297 35.0937309,8.1194663 35.128031,6.66865992 Z" id="path-1"></path>
        <path d="M26.1706074,18.8639946 C21.0174299,19.1117926 11.12125,23.3568997 5.72354329,29.3516604 C-1.05222842,36.8769172 -1.5563694,44.2344998 3.44088123,48.4580159 C8.43813185,52.681532 15.2689373,51.5725609 22.0447091,44.0473041 C27.4364651,38.0591523 30.3666644,27.5951889 29.9921624,22.3433799 L25.4057058,25.1766094 C24.9358422,25.4668621 24.3196461,25.3212587 24.0293934,24.8513951 C23.8570748,24.5724443 23.832452,24.2267397 23.9634951,23.9261819 L23.9634951,23.9261819 L26.1706074,18.8639946 Z" id="path-2"></path>
    </defs>
    <g id="Page-1" stroke="none" stroke-width="1" fill="none" fill-rule="evenodd">
        <g id="Artboard" transform="translate(-57.000000, -63.000000)">
            <g id="drumstick" transform="translate(57.000000, 63.000000)">
                <g id="Group">
                    <g id="Combined-Shape">
                        <use fill="#F2EDE5" fill-rule="evenodd" xlink:href="#path-1"></use>
                        <path stroke="#060605" stroke-width="1" d="M35.6141658,6.55172871 L35.6278913,6.68047767 C35.5894431,8.30673715 33.4796423,11.3634388 29.254592,16.0510056 C26.2013256,19.4385134 23.4605036,22.2546156 21.0310936,24.499897 C20.9726563,24.5539051 20.9167272,24.6105655 20.8634828,24.6696994 C19.9019271,25.7376152 19.988149,27.3828268 21.0560648,28.3443824 C21.1070674,28.3903054 21.1598168,28.4342505 21.2141961,28.4761203 C22.3859021,29.3782852 24.0671107,29.1597812 24.9692863,27.9880815 C27.3621605,24.8802848 29.7916636,22.0828395 32.2580172,19.5958306 C36.4453598,15.3734198 39.2433504,12.9976566 40.7503022,12.4197215 L40.9140916,12.3569062 L41.0812241,12.4101925 C41.5366844,12.5554055 42.0165557,12.5795978 42.503558,12.4736053 C42.9932929,12.3670181 43.2847154,12.1282562 43.7663111,11.5133055 C43.7551635,11.52754 43.9846663,11.232203 44.0527762,11.1467671 C44.2291075,10.9255802 44.3808752,10.7516421 44.5468111,10.587436 C44.6761593,10.4594362 45.1669541,9.99900582 45.240183,9.92845335 C46.0757906,9.12338564 46.4089212,8.57513728 46.2960002,8.07366289 C45.8063778,5.89928335 44.8034245,5.09 42.6098901,5.09 L42.1098901,5.09 L42.1098901,4.59 C42.1098901,2.22376578 41.0177319,0.746836472 39.0711299,0.746836472 C38.4554389,0.746836472 38.1511611,0.964842348 37.6750984,1.64712657 C37.7737675,1.50571577 37.2997219,2.19775246 37.1631272,2.38037211 C37.1029608,2.46081122 37.0434293,2.53710498 36.9830601,2.61078002 C36.8805743,2.73585448 36.4715088,3.2124803 36.3869182,3.31402592 C35.7612879,4.06505468 35.4645218,4.59885803 35.4645218,5.07410156 C35.4645218,5.64374128 35.5139653,6.13515083 35.6141658,6.55172871 Z"></path>
                    </g>
                    <g id="Combined-Shape">
                        <use fill="#90621C" fill-rule="evenodd" xlink:href="#path-2"></use>
                        <path stroke="#060605" stroke-width="1" d="M25.3785188,19.4296625 C19.6534099,20.0708368 10.7301641,24.538483 6.0951157,29.6862257 C-0.359058205,36.854312 -1.1072654,43.9594101 3.76363289,48.0761372 C8.70207235,52.2499479 15.2694737,50.824727 21.6731366,43.7127388 C26.2637779,38.6143151 29.5915342,29.1653719 29.5269895,23.2184425 L25.6684803,25.6019911 C24.9636849,26.0373702 24.0393908,25.818965 23.6040118,25.1141696 C23.3455339,24.6957434 23.3085997,24.1771865 23.5051643,23.7263498 L25.3785188,19.4296625 Z"></path>
                    </g>
                </g>
            </g>
        </g>
    </g>
</svg>